<mxfile host="app.diagrams.net" modified="2024-06-30T16:09:46.458Z" agent="Mozilla/5.0 (Windows NT 10.0; Win64; x64) AppleWebKit/537.36 (KHTML, like Gecko) Chrome/126.0.0.0 Safari/537.36 Edg/126.0.0.0" etag="kmQg-42LEFHMIJuqMd4Y" version="24.6.4" type="device">
  <diagram id="C5RBs43oDa-KdzZeNtuy" name="Page-1">
    <mxGraphModel dx="1421" dy="817" grid="1" gridSize="10" guides="1" tooltips="1" connect="1" arrows="1" fold="1" page="1" pageScale="1" pageWidth="827" pageHeight="1169" math="0" shadow="0">
      <root>
        <mxCell id="WIyWlLk6GJQsqaUBKTNV-0" />
        <mxCell id="WIyWlLk6GJQsqaUBKTNV-1" parent="WIyWlLk6GJQsqaUBKTNV-0" />
        <mxCell id="WZmqcclp832A3kfyxj5X-3" value=":Интернет-магазин" style="rounded=0;whiteSpace=wrap;html=1;" vertex="1" parent="WIyWlLk6GJQsqaUBKTNV-1">
          <mxGeometry x="260" y="100" width="120" height="60" as="geometry" />
        </mxCell>
        <mxCell id="WZmqcclp832A3kfyxj5X-4" value="" style="endArrow=none;html=1;rounded=0;entryX=0.5;entryY=1;entryDx=0;entryDy=0;dashed=1;dashPattern=12 12;" edge="1" parent="WIyWlLk6GJQsqaUBKTNV-1" target="WZmqcclp832A3kfyxj5X-3">
          <mxGeometry width="50" height="50" relative="1" as="geometry">
            <mxPoint x="320" y="640" as="sourcePoint" />
            <mxPoint x="440" y="290" as="targetPoint" />
          </mxGeometry>
        </mxCell>
        <mxCell id="WZmqcclp832A3kfyxj5X-6" value="" style="endArrow=classic;html=1;rounded=0;startArrow=none;startFill=0;endFill=1;" edge="1" parent="WIyWlLk6GJQsqaUBKTNV-1">
          <mxGeometry width="50" height="50" relative="1" as="geometry">
            <mxPoint x="120" y="240" as="sourcePoint" />
            <mxPoint x="320" y="240" as="targetPoint" />
          </mxGeometry>
        </mxCell>
        <mxCell id="WZmqcclp832A3kfyxj5X-7" value="1.Создать заказ" style="edgeLabel;html=1;align=center;verticalAlign=middle;resizable=0;points=[];" vertex="1" connectable="0" parent="WZmqcclp832A3kfyxj5X-6">
          <mxGeometry x="0.4429" y="1" relative="1" as="geometry">
            <mxPoint x="-54" y="-9" as="offset" />
          </mxGeometry>
        </mxCell>
        <mxCell id="WZmqcclp832A3kfyxj5X-9" value="" style="endArrow=classic;html=1;rounded=0;" edge="1" parent="WIyWlLk6GJQsqaUBKTNV-1">
          <mxGeometry width="50" height="50" relative="1" as="geometry">
            <mxPoint x="320" y="440" as="sourcePoint" />
            <mxPoint x="120" y="440" as="targetPoint" />
          </mxGeometry>
        </mxCell>
        <mxCell id="WZmqcclp832A3kfyxj5X-10" value="6.Уведомить о подтверждении" style="edgeLabel;html=1;align=center;verticalAlign=middle;resizable=0;points=[];" vertex="1" connectable="0" parent="WZmqcclp832A3kfyxj5X-9">
          <mxGeometry x="-0.3677" y="-2" relative="1" as="geometry">
            <mxPoint x="-36" y="-18" as="offset" />
          </mxGeometry>
        </mxCell>
        <mxCell id="WZmqcclp832A3kfyxj5X-11" value=":Покупатель" style="rounded=0;whiteSpace=wrap;html=1;" vertex="1" parent="WIyWlLk6GJQsqaUBKTNV-1">
          <mxGeometry x="60" y="100" width="120" height="60" as="geometry" />
        </mxCell>
        <mxCell id="WZmqcclp832A3kfyxj5X-13" value="" style="endArrow=none;html=1;rounded=0;entryX=0.5;entryY=1;entryDx=0;entryDy=0;dashed=1;dashPattern=12 12;" edge="1" parent="WIyWlLk6GJQsqaUBKTNV-1">
          <mxGeometry width="50" height="50" relative="1" as="geometry">
            <mxPoint x="120" y="630" as="sourcePoint" />
            <mxPoint x="120" y="150" as="targetPoint" />
          </mxGeometry>
        </mxCell>
        <mxCell id="WZmqcclp832A3kfyxj5X-14" value=":Система управления заказами" style="rounded=0;whiteSpace=wrap;html=1;" vertex="1" parent="WIyWlLk6GJQsqaUBKTNV-1">
          <mxGeometry x="460" y="100" width="120" height="60" as="geometry" />
        </mxCell>
        <mxCell id="WZmqcclp832A3kfyxj5X-16" value="" style="endArrow=none;html=1;rounded=0;entryX=0.5;entryY=1;entryDx=0;entryDy=0;dashed=1;dashPattern=12 12;" edge="1" parent="WIyWlLk6GJQsqaUBKTNV-1">
          <mxGeometry width="50" height="50" relative="1" as="geometry">
            <mxPoint x="520" y="800" as="sourcePoint" />
            <mxPoint x="519.5" y="150" as="targetPoint" />
          </mxGeometry>
        </mxCell>
        <mxCell id="WZmqcclp832A3kfyxj5X-18" value="" style="endArrow=classic;html=1;rounded=0;startArrow=none;startFill=0;endFill=1;" edge="1" parent="WIyWlLk6GJQsqaUBKTNV-1">
          <mxGeometry width="50" height="50" relative="1" as="geometry">
            <mxPoint x="320" y="280" as="sourcePoint" />
            <mxPoint x="520" y="280" as="targetPoint" />
          </mxGeometry>
        </mxCell>
        <mxCell id="WZmqcclp832A3kfyxj5X-19" value="2.Передать данные заказа" style="edgeLabel;html=1;align=center;verticalAlign=middle;resizable=0;points=[];" vertex="1" connectable="0" parent="WZmqcclp832A3kfyxj5X-18">
          <mxGeometry x="0.4429" y="1" relative="1" as="geometry">
            <mxPoint x="-54" y="-9" as="offset" />
          </mxGeometry>
        </mxCell>
        <mxCell id="WZmqcclp832A3kfyxj5X-20" value=":Склад" style="rounded=0;whiteSpace=wrap;html=1;" vertex="1" parent="WIyWlLk6GJQsqaUBKTNV-1">
          <mxGeometry x="660" y="100" width="120" height="60" as="geometry" />
        </mxCell>
        <mxCell id="WZmqcclp832A3kfyxj5X-21" value="" style="endArrow=none;html=1;rounded=0;entryX=0.5;entryY=1;entryDx=0;entryDy=0;dashed=1;dashPattern=12 12;" edge="1" parent="WIyWlLk6GJQsqaUBKTNV-1">
          <mxGeometry width="50" height="50" relative="1" as="geometry">
            <mxPoint x="719.52" y="630" as="sourcePoint" />
            <mxPoint x="719.52" y="150" as="targetPoint" />
          </mxGeometry>
        </mxCell>
        <mxCell id="WZmqcclp832A3kfyxj5X-22" value="" style="endArrow=classic;html=1;rounded=0;startArrow=none;startFill=0;endFill=1;" edge="1" parent="WIyWlLk6GJQsqaUBKTNV-1">
          <mxGeometry width="50" height="50" relative="1" as="geometry">
            <mxPoint x="520" y="320" as="sourcePoint" />
            <mxPoint x="720" y="320" as="targetPoint" />
          </mxGeometry>
        </mxCell>
        <mxCell id="WZmqcclp832A3kfyxj5X-23" value="3.Проверить наличие товара" style="edgeLabel;html=1;align=center;verticalAlign=middle;resizable=0;points=[];" vertex="1" connectable="0" parent="WZmqcclp832A3kfyxj5X-22">
          <mxGeometry x="0.4429" y="1" relative="1" as="geometry">
            <mxPoint x="-54" y="-9" as="offset" />
          </mxGeometry>
        </mxCell>
        <mxCell id="WZmqcclp832A3kfyxj5X-24" value=":Курьер" style="rounded=0;whiteSpace=wrap;html=1;" vertex="1" parent="WIyWlLk6GJQsqaUBKTNV-1">
          <mxGeometry x="870" y="100" width="120" height="60" as="geometry" />
        </mxCell>
        <mxCell id="WZmqcclp832A3kfyxj5X-25" value="" style="endArrow=none;html=1;rounded=0;entryX=0.5;entryY=1;entryDx=0;entryDy=0;dashed=1;dashPattern=12 12;" edge="1" parent="WIyWlLk6GJQsqaUBKTNV-1">
          <mxGeometry width="50" height="50" relative="1" as="geometry">
            <mxPoint x="920" y="630" as="sourcePoint" />
            <mxPoint x="920" y="150" as="targetPoint" />
          </mxGeometry>
        </mxCell>
        <mxCell id="WZmqcclp832A3kfyxj5X-26" value="" style="endArrow=classic;html=1;rounded=0;startArrow=none;startFill=0;endFill=1;" edge="1" parent="WIyWlLk6GJQsqaUBKTNV-1">
          <mxGeometry width="50" height="50" relative="1" as="geometry">
            <mxPoint x="720" y="360" as="sourcePoint" />
            <mxPoint x="520" y="360" as="targetPoint" />
          </mxGeometry>
        </mxCell>
        <mxCell id="WZmqcclp832A3kfyxj5X-27" value="4.Подтвердить наличие товара" style="edgeLabel;html=1;align=center;verticalAlign=middle;resizable=0;points=[];" vertex="1" connectable="0" parent="WZmqcclp832A3kfyxj5X-26">
          <mxGeometry x="0.4429" y="1" relative="1" as="geometry">
            <mxPoint x="35" y="-11" as="offset" />
          </mxGeometry>
        </mxCell>
        <mxCell id="WZmqcclp832A3kfyxj5X-28" value="" style="endArrow=classic;html=1;rounded=0;startArrow=none;startFill=0;endFill=1;" edge="1" parent="WIyWlLk6GJQsqaUBKTNV-1">
          <mxGeometry width="50" height="50" relative="1" as="geometry">
            <mxPoint x="520" y="400" as="sourcePoint" />
            <mxPoint x="320" y="400" as="targetPoint" />
          </mxGeometry>
        </mxCell>
        <mxCell id="WZmqcclp832A3kfyxj5X-29" value="5.Подтвердить заказ" style="edgeLabel;html=1;align=center;verticalAlign=middle;resizable=0;points=[];" vertex="1" connectable="0" parent="WZmqcclp832A3kfyxj5X-28">
          <mxGeometry x="0.4429" y="1" relative="1" as="geometry">
            <mxPoint x="35" y="-11" as="offset" />
          </mxGeometry>
        </mxCell>
        <mxCell id="WZmqcclp832A3kfyxj5X-30" value="" style="endArrow=classic;html=1;rounded=0;startArrow=none;startFill=0;endFill=1;" edge="1" parent="WIyWlLk6GJQsqaUBKTNV-1">
          <mxGeometry width="50" height="50" relative="1" as="geometry">
            <mxPoint x="320" y="480" as="sourcePoint" />
            <mxPoint x="520" y="480" as="targetPoint" />
          </mxGeometry>
        </mxCell>
        <mxCell id="WZmqcclp832A3kfyxj5X-31" value="7.Создать задачу на доставку" style="edgeLabel;html=1;align=center;verticalAlign=middle;resizable=0;points=[];" vertex="1" connectable="0" parent="WZmqcclp832A3kfyxj5X-30">
          <mxGeometry x="0.4429" y="1" relative="1" as="geometry">
            <mxPoint x="-54" y="-9" as="offset" />
          </mxGeometry>
        </mxCell>
        <mxCell id="WZmqcclp832A3kfyxj5X-32" value="" style="endArrow=classic;html=1;rounded=0;startArrow=none;startFill=0;endFill=1;" edge="1" parent="WIyWlLk6GJQsqaUBKTNV-1">
          <mxGeometry width="50" height="50" relative="1" as="geometry">
            <mxPoint x="720" y="520" as="sourcePoint" />
            <mxPoint x="920" y="520" as="targetPoint" />
          </mxGeometry>
        </mxCell>
        <mxCell id="WZmqcclp832A3kfyxj5X-33" value="8.Доставить товар" style="edgeLabel;html=1;align=center;verticalAlign=middle;resizable=0;points=[];" vertex="1" connectable="0" parent="WZmqcclp832A3kfyxj5X-32">
          <mxGeometry x="0.4429" y="1" relative="1" as="geometry">
            <mxPoint x="-54" y="-9" as="offset" />
          </mxGeometry>
        </mxCell>
        <mxCell id="WZmqcclp832A3kfyxj5X-35" value="" style="endArrow=none;html=1;rounded=0;entryX=0.5;entryY=1;entryDx=0;entryDy=0;dashed=1;dashPattern=12 12;" edge="1" parent="WIyWlLk6GJQsqaUBKTNV-1" source="WZmqcclp832A3kfyxj5X-34">
          <mxGeometry width="50" height="50" relative="1" as="geometry">
            <mxPoint x="119" y="800" as="sourcePoint" />
            <mxPoint x="119.33" y="680" as="targetPoint" />
          </mxGeometry>
        </mxCell>
        <mxCell id="WZmqcclp832A3kfyxj5X-36" value=":Менеджер" style="rounded=0;whiteSpace=wrap;html=1;" vertex="1" parent="WIyWlLk6GJQsqaUBKTNV-1">
          <mxGeometry x="260" y="640" width="120" height="60" as="geometry" />
        </mxCell>
        <mxCell id="WZmqcclp832A3kfyxj5X-37" value="" style="endArrow=none;html=1;rounded=0;entryX=0.5;entryY=1;entryDx=0;entryDy=0;dashed=1;dashPattern=12 12;" edge="1" parent="WIyWlLk6GJQsqaUBKTNV-1" target="WZmqcclp832A3kfyxj5X-34">
          <mxGeometry width="50" height="50" relative="1" as="geometry">
            <mxPoint x="119" y="800" as="sourcePoint" />
            <mxPoint x="119.33" y="680" as="targetPoint" />
          </mxGeometry>
        </mxCell>
        <mxCell id="WZmqcclp832A3kfyxj5X-34" value=":Администратор" style="rounded=0;whiteSpace=wrap;html=1;" vertex="1" parent="WIyWlLk6GJQsqaUBKTNV-1">
          <mxGeometry x="60" y="640" width="120" height="60" as="geometry" />
        </mxCell>
        <mxCell id="WZmqcclp832A3kfyxj5X-38" value="" style="endArrow=none;html=1;rounded=0;entryX=0.5;entryY=1;entryDx=0;entryDy=0;dashed=1;dashPattern=12 12;" edge="1" parent="WIyWlLk6GJQsqaUBKTNV-1">
          <mxGeometry width="50" height="50" relative="1" as="geometry">
            <mxPoint x="319.5" y="800" as="sourcePoint" />
            <mxPoint x="320.5" y="700" as="targetPoint" />
          </mxGeometry>
        </mxCell>
        <mxCell id="WZmqcclp832A3kfyxj5X-39" value="" style="endArrow=classic;html=1;rounded=0;startArrow=none;startFill=0;endFill=1;" edge="1" parent="WIyWlLk6GJQsqaUBKTNV-1">
          <mxGeometry width="50" height="50" relative="1" as="geometry">
            <mxPoint x="120" y="760" as="sourcePoint" />
            <mxPoint x="320" y="760" as="targetPoint" />
          </mxGeometry>
        </mxCell>
        <mxCell id="WZmqcclp832A3kfyxj5X-40" value="9.Управлять настройками" style="edgeLabel;html=1;align=center;verticalAlign=middle;resizable=0;points=[];" vertex="1" connectable="0" parent="WZmqcclp832A3kfyxj5X-39">
          <mxGeometry x="0.4429" y="1" relative="1" as="geometry">
            <mxPoint x="-54" y="-9" as="offset" />
          </mxGeometry>
        </mxCell>
        <mxCell id="WZmqcclp832A3kfyxj5X-42" value="" style="endArrow=classic;html=1;rounded=0;startArrow=none;startFill=0;endFill=1;" edge="1" parent="WIyWlLk6GJQsqaUBKTNV-1">
          <mxGeometry width="50" height="50" relative="1" as="geometry">
            <mxPoint x="320" y="800" as="sourcePoint" />
            <mxPoint x="520" y="800" as="targetPoint" />
          </mxGeometry>
        </mxCell>
        <mxCell id="WZmqcclp832A3kfyxj5X-43" value="10.Обрабатывать заказы" style="edgeLabel;html=1;align=center;verticalAlign=middle;resizable=0;points=[];" vertex="1" connectable="0" parent="WZmqcclp832A3kfyxj5X-42">
          <mxGeometry x="0.4429" y="1" relative="1" as="geometry">
            <mxPoint x="-54" y="-9" as="offset" />
          </mxGeometry>
        </mxCell>
      </root>
    </mxGraphModel>
  </diagram>
</mxfile>
